<?xml version="1.0" encoding="UTF-8" standalone="no"?>
<!DOCTYPE svg PUBLIC "-//W3C//DTD SVG 1.1//EN" "http://www.w3.org/Graphics/SVG/1.1/DTD/svg11.dtd">
<svg width="100%" height="100%" viewBox="0 0 82 180" version="1.1" xmlns="http://www.w3.org/2000/svg" xmlns:xlink="http://www.w3.org/1999/xlink" xml:space="preserve" xmlns:serif="http://www.serif.com/" style="fill-rule:evenodd;clip-rule:evenodd;stroke-linejoin:round;stroke-miterlimit:2;">
    <g transform="matrix(1,0,0,1,-905.884,-892.078)">
        <g id="Page-6" serif:id="Page 6" transform="matrix(0.854167,0,0,1.875,905.884,892.078)">
            <rect x="0" y="0" width="96" height="96" style="fill:none;"/>
            <clipPath id="_clip1">
                <rect x="0" y="0" width="96" height="96"/>
            </clipPath>
            <g clip-path="url(#_clip1)">
                <g id="Layer-1" serif:id="Layer 1" transform="matrix(1.17073,0,0,0.533333,-6.88881,-0.574794)">
                    <g transform="matrix(1,0,0,1,-1.116,-1.92256)">
                        <g transform="matrix(1,0,0,1,29.3385,56.3892)">
                            <path d="M0,-14.795C1.151,-14.795 2.084,-13.862 2.084,-12.711C2.084,-11.56 1.151,-10.627 0,-10.627C-1.151,-10.627 -2.084,-11.56 -2.084,-12.711C-2.084,-13.862 -1.151,-14.795 0,-14.795M24.024,-14.21C26.308,-14.162 28.592,-14.204 30.872,-14.335C32.013,-14.399 33.023,-13.544 33.122,-12.401C33.22,-11.259 32.315,-10.241 31.11,-10.172C28.722,-10.036 26.329,-9.992 23.937,-10.043C22.73,-10.067 21.79,-11.052 21.847,-12.196C21.902,-13.342 22.883,-14.233 24.024,-14.21M-18.161,-25.238C-18.217,-21.628 -17.027,-18.342 -15.297,-16.901L-15.202,-16.827C-15.01,-16.676 -14.813,-16.549 -14.615,-16.447C-14.608,-16.443 -14.602,-16.441 -14.595,-16.437C-14.511,-16.395 -14.427,-16.358 -14.342,-16.324C-14.321,-16.316 -14.3,-16.308 -14.278,-16.3C-14.187,-16.266 -14.093,-16.235 -14,-16.212C-13.739,-16.146 -13.457,-16.082 -13.158,-16.02C-11.475,-15.671 -8.322,-15.3 -5.701,-15.052C-5.62,-15.049 -5.539,-15.041 -5.46,-15.029C-5.456,-15.028 -5.452,-15.028 -5.447,-15.028L-5.447,-15.027C-4.454,-14.868 -3.693,-14.01 -3.693,-12.971C-3.693,-11.82 -4.627,-10.887 -5.778,-10.887C-5.888,-10.887 -5.995,-10.898 -6.101,-10.915L-6.101,-10.906C-6.196,-10.915 -6.292,-10.923 -6.387,-10.932C-6.436,-10.937 -6.485,-10.941 -6.535,-10.945C-6.708,-10.962 -6.88,-10.978 -7.052,-10.994C-7.091,-10.998 -7.131,-11.002 -7.171,-11.005C-7.34,-11.022 -7.508,-11.039 -7.675,-11.055C-7.717,-11.06 -7.76,-11.064 -7.802,-11.068C-7.981,-11.086 -8.159,-11.105 -8.336,-11.124C-8.362,-11.126 -8.39,-11.129 -8.416,-11.132C-8.597,-11.151 -8.775,-11.171 -8.953,-11.191C-8.976,-11.193 -8.999,-11.195 -9.021,-11.198C-9.821,-11.288 -10.586,-11.383 -11.306,-11.485C-11.331,-11.488 -11.355,-11.492 -11.381,-11.496C-11.533,-11.518 -11.685,-11.539 -11.833,-11.562C-11.884,-11.569 -11.932,-11.577 -11.981,-11.585C-12.104,-11.603 -12.225,-11.622 -12.343,-11.64C-12.406,-11.65 -12.468,-11.661 -12.531,-11.671C-12.633,-11.688 -12.734,-11.704 -12.833,-11.721C-12.904,-11.733 -12.972,-11.746 -13.041,-11.758C-13.129,-11.773 -13.219,-11.789 -13.305,-11.804C-13.378,-11.818 -13.448,-11.831 -13.52,-11.845C-13.599,-11.86 -13.68,-11.875 -13.757,-11.89C-13.829,-11.904 -13.898,-11.919 -13.969,-11.933C-14.042,-11.948 -14.117,-11.963 -14.188,-11.978C-14.259,-11.993 -14.325,-12.008 -14.394,-12.023C-14.452,-12.036 -14.514,-12.049 -14.57,-12.062C-14.451,-8.248 -13.901,-1.335 -11.669,5.748C-7.336,19.501 1.023,27.418 13.177,29.282L13.39,29.314L13.591,29.389C15.667,30.165 17.236,30.994 18.254,31.851C18.82,32.328 19.166,32.421 19.258,32.438L19.499,32.401L19.739,32.438C19.831,32.421 20.177,32.328 20.743,31.851C22.657,30.24 26.157,29.108 26.551,28.984L26.741,28.934C29.874,28.265 32.726,27.161 35.295,25.631C45.907,14.897 46.871,-4.238 46.844,-11.256L46.577,-11.225C46.512,-11.217 46.447,-11.21 46.381,-11.202C46.255,-11.188 46.126,-11.174 45.998,-11.16C45.925,-11.152 45.852,-11.144 45.777,-11.136C45.65,-11.123 45.522,-11.109 45.394,-11.096C45.317,-11.088 45.242,-11.08 45.166,-11.072C45.041,-11.06 44.915,-11.047 44.789,-11.035C44.705,-11.026 44.621,-11.018 44.536,-11.01C44.414,-10.998 44.291,-10.986 44.168,-10.975C44.079,-10.966 43.992,-10.958 43.903,-10.95C43.778,-10.938 43.651,-10.927 43.524,-10.916C43.436,-10.908 43.347,-10.899 43.257,-10.892C43.132,-10.88 43.006,-10.87 42.88,-10.859C42.788,-10.851 42.697,-10.843 42.605,-10.836C42.478,-10.825 42.349,-10.814 42.22,-10.804C42.128,-10.796 42.037,-10.789 41.944,-10.781C41.816,-10.771 41.688,-10.761 41.559,-10.751C41.464,-10.743 41.37,-10.736 41.275,-10.729C41.147,-10.719 41.02,-10.709 40.892,-10.7L40.602,-10.678C40.475,-10.669 40.348,-10.659 40.22,-10.65C40.12,-10.643 40.021,-10.636 39.921,-10.629C39.795,-10.62 39.669,-10.611 39.544,-10.603C39.441,-10.596 39.339,-10.588 39.236,-10.582C39.112,-10.573 38.988,-10.565 38.864,-10.557C38.759,-10.55 38.653,-10.543 38.549,-10.536C38.426,-10.528 38.304,-10.521 38.181,-10.513C38.073,-10.506 37.967,-10.499 37.859,-10.493C37.738,-10.485 37.617,-10.478 37.495,-10.47C37.385,-10.463 37.275,-10.457 37.165,-10.45C37.044,-10.443 36.923,-10.436 36.802,-10.429C36.78,-10.428 36.758,-10.426 36.735,-10.425L36.735,-10.484C36.66,-10.476 36.584,-10.471 36.507,-10.471C35.355,-10.471 34.423,-11.404 34.423,-12.555C34.423,-13.706 35.355,-14.639 36.507,-14.639C36.625,-14.639 36.739,-14.627 36.852,-14.608C40.974,-14.85 45.035,-15.177 48.113,-15.617C51.994,-21.507 50.856,-34.303 38.038,-37.334C26.283,-40.113 19.14,-44.98 16.309,-47.233C12.397,-45.252 5.028,-42.119 -6.286,-39.63C-14.908,-37.733 -18.073,-30.952 -18.161,-25.238" style="fill:rgb(238,45,109);fill-rule:nonzero;"/>
                        </g>
                        <g transform="matrix(-1,0,0,1,29.3385,45.7622)">
                            <path d="M0,-4.168C1.151,-4.168 2.084,-3.235 2.084,-2.084C2.084,-0.933 1.151,0 0,0C-1.151,0 -2.084,-0.933 -2.084,-2.084C-2.084,-3.235 -1.151,-4.168 0,-4.168" style="fill-rule:nonzero;"/>
                        </g>
                        <g transform="matrix(1,0,0,1,60.2106,46.3327)">
                            <path d="M0,-4.278C-2.28,-4.147 -4.564,-4.106 -6.848,-4.153C-7.989,-4.177 -8.97,-3.285 -9.025,-2.14C-9.082,-0.995 -8.142,-0.011 -6.935,0.014C-4.543,0.064 -2.15,0.021 0.238,-0.116C1.443,-0.185 2.348,-1.202 2.25,-2.344C2.151,-3.487 1.141,-4.342 0,-4.278" style="fill-rule:nonzero;"/>
                        </g>
                        <g transform="matrix(1,0,0,1,81.9587,56.5563)">
                            <path d="M0,-17.068L-0.095,-16.994C-0.287,-16.843 -0.484,-16.716 -0.684,-16.613C-0.688,-16.61 -0.694,-16.608 -0.699,-16.606C-0.785,-16.562 -0.87,-16.525 -0.956,-16.491C-0.977,-16.483 -0.997,-16.475 -1.018,-16.467C-1.11,-16.433 -1.204,-16.402 -1.298,-16.379C-4.284,-15.625 -9.968,-15.116 -15.769,-14.776C-15.881,-14.794 -15.995,-14.806 -16.113,-14.806C-17.265,-14.806 -18.197,-13.873 -18.197,-12.722C-18.197,-11.571 -17.265,-10.638 -16.113,-10.638C-16.036,-10.638 -15.96,-10.643 -15.885,-10.651L-15.885,-10.592C-15.862,-10.593 -15.84,-10.595 -15.818,-10.596C-15.697,-10.603 -15.576,-10.61 -15.455,-10.617C-15.345,-10.624 -15.235,-10.631 -15.125,-10.637C-15.003,-10.645 -14.882,-10.652 -14.761,-10.66C-14.653,-10.666 -14.547,-10.673 -14.439,-10.68C-14.316,-10.688 -14.194,-10.695 -14.071,-10.703C-13.967,-10.71 -13.861,-10.717 -13.756,-10.724C-13.632,-10.732 -13.508,-10.74 -13.384,-10.749C-13.281,-10.756 -13.179,-10.763 -13.076,-10.77C-12.951,-10.778 -12.825,-10.787 -12.699,-10.796C-12.6,-10.803 -12.5,-10.81 -12.4,-10.818C-12.272,-10.826 -12.146,-10.836 -12.019,-10.845L-11.729,-10.867C-11.601,-10.876 -11.473,-10.886 -11.345,-10.896C-11.25,-10.903 -11.156,-10.91 -11.062,-10.918C-10.933,-10.928 -10.804,-10.938 -10.676,-10.948C-10.583,-10.956 -10.492,-10.963 -10.4,-10.971C-10.271,-10.981 -10.143,-10.992 -10.015,-11.003C-9.923,-11.01 -9.832,-11.018 -9.74,-11.026C-9.614,-11.037 -9.488,-11.047 -9.363,-11.059C-9.273,-11.067 -9.185,-11.075 -9.096,-11.083C-8.969,-11.094 -8.842,-11.105 -8.717,-11.117C-8.628,-11.125 -8.541,-11.133 -8.452,-11.142C-8.329,-11.153 -8.206,-11.165 -8.084,-11.177C-7.999,-11.185 -7.915,-11.193 -7.831,-11.202C-7.705,-11.214 -7.579,-11.227 -7.454,-11.239C-7.378,-11.247 -7.303,-11.255 -7.227,-11.263C-7.098,-11.276 -6.97,-11.29 -6.843,-11.303C-6.769,-11.311 -6.695,-11.319 -6.622,-11.327C-6.494,-11.341 -6.365,-11.355 -6.239,-11.369C-6.173,-11.377 -6.108,-11.384 -6.043,-11.392C-5.912,-11.407 -5.78,-11.422 -5.651,-11.438C-5.592,-11.444 -5.534,-11.452 -5.475,-11.459C-5.341,-11.475 -5.207,-11.491 -5.076,-11.508C-5.027,-11.514 -4.98,-11.52 -4.933,-11.526C-4.793,-11.544 -4.653,-11.562 -4.518,-11.58C-4.482,-11.585 -4.449,-11.589 -4.415,-11.594C-3.557,-11.71 -2.756,-11.833 -2.028,-11.965C-2.015,-11.967 -2,-11.97 -1.985,-11.973C-1.871,-11.994 -1.759,-12.015 -1.647,-12.037C-1.609,-12.044 -1.57,-12.051 -1.532,-12.058C-1.435,-12.078 -1.34,-12.097 -1.245,-12.117C-1.197,-12.127 -1.147,-12.137 -1.101,-12.147C-1.013,-12.165 -0.929,-12.184 -0.844,-12.203C-0.797,-12.214 -0.748,-12.224 -0.702,-12.235C-0.754,-8.576 -1.158,-2.024 -3.09,4.815C-6.897,18.291 -14.564,26.35 -25.879,28.767L-26.069,28.817C-26.463,28.941 -29.963,30.073 -31.877,31.684C-32.443,32.161 -32.789,32.254 -32.881,32.271L-33.121,32.234L-33.362,32.271C-33.454,32.254 -33.8,32.161 -34.366,31.684C-35.384,30.827 -36.953,29.998 -39.029,29.222L-39.23,29.147L-39.443,29.115C-51.597,27.251 -59.956,19.334 -64.289,5.581C-66.521,-1.502 -67.071,-8.415 -67.19,-12.229C-67.134,-12.216 -67.072,-12.203 -67.014,-12.19C-66.945,-12.175 -66.879,-12.16 -66.809,-12.145C-66.737,-12.13 -66.662,-12.115 -66.589,-12.1C-66.519,-12.086 -66.449,-12.071 -66.377,-12.057C-66.3,-12.042 -66.219,-12.027 -66.14,-12.012C-66.068,-11.998 -65.998,-11.985 -65.925,-11.971C-65.839,-11.956 -65.749,-11.94 -65.661,-11.925C-65.592,-11.913 -65.524,-11.9 -65.453,-11.888C-65.354,-11.871 -65.253,-11.855 -65.151,-11.839C-65.088,-11.828 -65.026,-11.818 -64.963,-11.807C-64.845,-11.789 -64.724,-11.77 -64.602,-11.752C-64.552,-11.744 -64.504,-11.736 -64.453,-11.729C-64.305,-11.706 -64.153,-11.685 -64.001,-11.663C-63.976,-11.659 -63.951,-11.655 -63.926,-11.652C-63.206,-11.55 -62.441,-11.455 -61.642,-11.365C-61.619,-11.362 -61.596,-11.36 -61.573,-11.358C-61.396,-11.338 -61.217,-11.318 -61.036,-11.299C-61.01,-11.296 -60.982,-11.293 -60.956,-11.291C-60.779,-11.272 -60.602,-11.253 -60.422,-11.235C-60.38,-11.231 -60.337,-11.227 -60.295,-11.222C-60.128,-11.206 -59.96,-11.189 -59.791,-11.172C-59.751,-11.169 -59.711,-11.165 -59.672,-11.161C-59.5,-11.145 -59.328,-11.129 -59.155,-11.112C-59.105,-11.108 -59.056,-11.104 -59.007,-11.099C-58.912,-11.09 -58.816,-11.082 -58.721,-11.073L-58.721,-11.082C-58.615,-11.065 -58.508,-11.054 -58.398,-11.054C-57.247,-11.054 -56.313,-11.987 -56.313,-13.138C-56.313,-14.177 -57.074,-15.035 -58.067,-15.194L-58.067,-15.195C-58.072,-15.195 -58.076,-15.195 -58.08,-15.196C-58.159,-15.208 -58.24,-15.216 -58.321,-15.219C-60.942,-15.467 -64.095,-15.839 -65.778,-16.187C-66.077,-16.249 -66.359,-16.313 -66.62,-16.379C-66.713,-16.402 -66.807,-16.433 -66.898,-16.467C-66.92,-16.475 -66.941,-16.483 -66.962,-16.491C-67.047,-16.525 -67.131,-16.562 -67.215,-16.604C-67.222,-16.608 -67.229,-16.61 -67.235,-16.614C-67.434,-16.716 -67.63,-16.843 -67.822,-16.994L-67.917,-17.068C-69.647,-18.509 -70.837,-21.796 -70.781,-25.405C-70.693,-31.119 -67.528,-37.901 -58.906,-39.797C-44.863,-42.886 -36.894,-46.969 -34.076,-48.609C-31.217,-46.984 -23.087,-42.894 -9.011,-39.797C-0.39,-37.901 2.776,-31.119 2.864,-25.405C2.92,-21.796 1.73,-18.509 0,-17.068M7.032,-25.469C6.971,-29.514 5.701,-33.455 3.46,-36.566C0.796,-40.263 -3.206,-42.789 -8.115,-43.868C-21.504,-46.814 -30.209,-50.991 -32.942,-52.788L-34.108,-53.556L-35.266,-52.771C-37.906,-50.978 -46.434,-46.809 -59.802,-43.868C-64.711,-42.789 -68.714,-40.263 -71.377,-36.566C-73.619,-33.455 -74.888,-29.514 -74.949,-25.469C-75.019,-20.971 -73.652,-17.038 -71.389,-14.629C-71.429,-11.905 -71.303,-2.872 -68.3,6.725C-63.555,21.887 -53.873,31.037 -40.295,33.201C-38.825,33.763 -37.65,34.369 -37.051,34.873C-35.377,36.283 -33.962,36.488 -33.121,36.437C-33.05,36.441 -32.974,36.444 -32.894,36.444C-32.037,36.444 -30.723,36.162 -29.191,34.873C-28.252,34.081 -26.104,33.21 -24.905,32.821C-12.197,30.067 -3.268,20.777 0.921,5.949C3.536,-3.307 3.535,-11.896 3.455,-14.611C5.729,-17.02 7.102,-20.961 7.032,-25.469" style="fill-rule:nonzero;"/>
                        </g>
                    </g>
                    <g transform="matrix(1,0,0,1,-1.116,88.0774)">
                        <g transform="matrix(1,0,0,1,29.3385,56.3892)">
                            <path d="M0,-14.795C1.151,-14.795 2.084,-13.862 2.084,-12.711C2.084,-11.56 1.151,-10.627 0,-10.627C-1.151,-10.627 -2.084,-11.56 -2.084,-12.711C-2.084,-13.862 -1.151,-14.795 0,-14.795M24.024,-14.21C26.308,-14.162 28.592,-14.204 30.872,-14.335C32.013,-14.399 33.023,-13.544 33.122,-12.401C33.22,-11.259 32.315,-10.241 31.11,-10.172C28.722,-10.036 26.329,-9.992 23.937,-10.043C22.73,-10.067 21.79,-11.052 21.847,-12.196C21.902,-13.342 22.883,-14.233 24.024,-14.21M-18.161,-25.238C-18.217,-21.628 -17.027,-18.342 -15.297,-16.901L-15.202,-16.827C-15.01,-16.676 -14.813,-16.549 -14.615,-16.447C-14.608,-16.443 -14.602,-16.441 -14.595,-16.437C-14.511,-16.395 -14.427,-16.358 -14.342,-16.324C-14.321,-16.316 -14.3,-16.308 -14.278,-16.3C-14.187,-16.266 -14.093,-16.235 -14,-16.212C-13.739,-16.146 -13.457,-16.082 -13.158,-16.02C-11.475,-15.671 -8.322,-15.3 -5.701,-15.052C-5.62,-15.049 -5.539,-15.041 -5.46,-15.029C-5.456,-15.028 -5.452,-15.028 -5.447,-15.028L-5.447,-15.027C-4.454,-14.868 -3.693,-14.01 -3.693,-12.971C-3.693,-11.82 -4.627,-10.887 -5.778,-10.887C-5.888,-10.887 -5.995,-10.898 -6.101,-10.915L-6.101,-10.906C-6.196,-10.915 -6.292,-10.923 -6.387,-10.932C-6.436,-10.937 -6.485,-10.941 -6.535,-10.945C-6.708,-10.962 -6.88,-10.978 -7.052,-10.994C-7.091,-10.998 -7.131,-11.002 -7.171,-11.005C-7.34,-11.022 -7.508,-11.039 -7.675,-11.055C-7.717,-11.06 -7.76,-11.064 -7.802,-11.068C-7.981,-11.086 -8.159,-11.105 -8.336,-11.124C-8.362,-11.126 -8.39,-11.129 -8.416,-11.132C-8.597,-11.151 -8.775,-11.171 -8.953,-11.191C-8.976,-11.193 -8.999,-11.195 -9.021,-11.198C-9.821,-11.288 -10.586,-11.383 -11.306,-11.485C-11.331,-11.488 -11.355,-11.492 -11.381,-11.496C-11.533,-11.518 -11.685,-11.539 -11.833,-11.562C-11.884,-11.569 -11.932,-11.577 -11.981,-11.585C-12.104,-11.603 -12.225,-11.622 -12.343,-11.64C-12.406,-11.65 -12.468,-11.661 -12.531,-11.671C-12.633,-11.688 -12.734,-11.704 -12.833,-11.721C-12.904,-11.733 -12.972,-11.746 -13.041,-11.758C-13.129,-11.773 -13.219,-11.789 -13.305,-11.804C-13.378,-11.818 -13.448,-11.831 -13.52,-11.845C-13.599,-11.86 -13.68,-11.875 -13.757,-11.89C-13.829,-11.904 -13.898,-11.919 -13.969,-11.933C-14.042,-11.948 -14.117,-11.963 -14.188,-11.978C-14.259,-11.993 -14.325,-12.008 -14.394,-12.023C-14.452,-12.036 -14.514,-12.049 -14.57,-12.062C-14.451,-8.248 -13.901,-1.335 -11.669,5.748C-7.336,19.501 1.023,27.418 13.177,29.282L13.39,29.314L13.591,29.389C15.667,30.165 17.236,30.994 18.254,31.851C18.82,32.328 19.166,32.421 19.258,32.438L19.499,32.401L19.739,32.438C19.831,32.421 20.177,32.328 20.743,31.851C22.657,30.24 26.157,29.108 26.551,28.984L26.741,28.934C29.874,28.265 32.726,27.161 35.295,25.631C45.907,14.897 46.871,-4.238 46.844,-11.256L46.577,-11.225C46.512,-11.217 46.447,-11.21 46.381,-11.202C46.255,-11.188 46.126,-11.174 45.998,-11.16C45.925,-11.152 45.852,-11.144 45.777,-11.136C45.65,-11.123 45.522,-11.109 45.394,-11.096C45.317,-11.088 45.242,-11.08 45.166,-11.072C45.041,-11.06 44.915,-11.047 44.789,-11.035C44.705,-11.026 44.621,-11.018 44.536,-11.01C44.414,-10.998 44.291,-10.986 44.168,-10.975C44.079,-10.966 43.992,-10.958 43.903,-10.95C43.778,-10.938 43.651,-10.927 43.524,-10.916C43.436,-10.908 43.347,-10.899 43.257,-10.892C43.132,-10.88 43.006,-10.87 42.88,-10.859C42.788,-10.851 42.697,-10.843 42.605,-10.836C42.478,-10.825 42.349,-10.814 42.22,-10.804C42.128,-10.796 42.037,-10.789 41.944,-10.781C41.816,-10.771 41.688,-10.761 41.559,-10.751C41.464,-10.743 41.37,-10.736 41.275,-10.729C41.147,-10.719 41.02,-10.709 40.892,-10.7L40.602,-10.678C40.475,-10.669 40.348,-10.659 40.22,-10.65C40.12,-10.643 40.021,-10.636 39.921,-10.629C39.795,-10.62 39.669,-10.611 39.544,-10.603C39.441,-10.596 39.339,-10.588 39.236,-10.582C39.112,-10.573 38.988,-10.565 38.864,-10.557C38.759,-10.55 38.653,-10.543 38.549,-10.536C38.426,-10.528 38.304,-10.521 38.181,-10.513C38.073,-10.506 37.967,-10.499 37.859,-10.493C37.738,-10.485 37.617,-10.478 37.495,-10.47C37.385,-10.463 37.275,-10.457 37.165,-10.45C37.044,-10.443 36.923,-10.436 36.802,-10.429C36.78,-10.428 36.758,-10.426 36.735,-10.425L36.735,-10.484C36.66,-10.476 36.584,-10.471 36.507,-10.471C35.355,-10.471 34.423,-11.404 34.423,-12.555C34.423,-13.706 35.355,-14.639 36.507,-14.639C36.625,-14.639 36.739,-14.627 36.852,-14.608C40.974,-14.85 45.035,-15.177 48.113,-15.617C51.994,-21.507 50.856,-34.303 38.038,-37.334C26.283,-40.113 19.14,-44.98 16.309,-47.233C12.397,-45.252 5.028,-42.119 -6.286,-39.63C-14.908,-37.733 -18.073,-30.952 -18.161,-25.238" style="fill:rgb(238,45,109);fill-rule:nonzero;"/>
                        </g>
                        <g transform="matrix(-1,0,0,1,29.3385,45.7622)">
                            <path d="M0,-4.168C1.151,-4.168 2.084,-3.235 2.084,-2.084C2.084,-0.933 1.151,0 0,0C-1.151,0 -2.084,-0.933 -2.084,-2.084C-2.084,-3.235 -1.151,-4.168 0,-4.168" style="fill:white;fill-rule:nonzero;"/>
                        </g>
                        <g transform="matrix(1,0,0,1,60.2106,46.3327)">
                            <path d="M0,-4.278C-2.28,-4.147 -4.564,-4.106 -6.848,-4.153C-7.989,-4.177 -8.97,-3.285 -9.025,-2.14C-9.082,-0.995 -8.142,-0.011 -6.935,0.014C-4.543,0.064 -2.15,0.021 0.238,-0.116C1.443,-0.185 2.348,-1.202 2.25,-2.344C2.151,-3.487 1.141,-4.342 0,-4.278" style="fill:white;fill-rule:nonzero;"/>
                        </g>
                        <g transform="matrix(1,0,0,1,81.9587,56.5563)">
                            <path d="M0,-17.068L-0.095,-16.994C-0.287,-16.843 -0.484,-16.716 -0.684,-16.613C-0.688,-16.61 -0.694,-16.608 -0.699,-16.606C-0.785,-16.562 -0.87,-16.525 -0.956,-16.491C-0.977,-16.483 -0.997,-16.475 -1.018,-16.467C-1.11,-16.433 -1.204,-16.402 -1.298,-16.379C-4.284,-15.625 -9.968,-15.116 -15.769,-14.776C-15.881,-14.794 -15.995,-14.806 -16.113,-14.806C-17.265,-14.806 -18.197,-13.873 -18.197,-12.722C-18.197,-11.571 -17.265,-10.638 -16.113,-10.638C-16.036,-10.638 -15.96,-10.643 -15.885,-10.651L-15.885,-10.592C-15.862,-10.593 -15.84,-10.595 -15.818,-10.596C-15.697,-10.603 -15.576,-10.61 -15.455,-10.617C-15.345,-10.624 -15.235,-10.631 -15.125,-10.637C-15.003,-10.645 -14.882,-10.652 -14.761,-10.66C-14.653,-10.666 -14.547,-10.673 -14.439,-10.68C-14.316,-10.688 -14.194,-10.695 -14.071,-10.703C-13.967,-10.71 -13.861,-10.717 -13.756,-10.724C-13.632,-10.732 -13.508,-10.74 -13.384,-10.749C-13.281,-10.756 -13.179,-10.763 -13.076,-10.77C-12.951,-10.778 -12.825,-10.787 -12.699,-10.796C-12.6,-10.803 -12.5,-10.81 -12.4,-10.818C-12.272,-10.826 -12.146,-10.836 -12.019,-10.845L-11.729,-10.867C-11.601,-10.876 -11.473,-10.886 -11.345,-10.896C-11.25,-10.903 -11.156,-10.91 -11.062,-10.918C-10.933,-10.928 -10.804,-10.938 -10.676,-10.948C-10.583,-10.956 -10.492,-10.963 -10.4,-10.971C-10.271,-10.981 -10.143,-10.992 -10.015,-11.003C-9.923,-11.01 -9.832,-11.018 -9.74,-11.026C-9.614,-11.037 -9.488,-11.047 -9.363,-11.059C-9.273,-11.067 -9.185,-11.075 -9.096,-11.083C-8.969,-11.094 -8.842,-11.105 -8.717,-11.117C-8.628,-11.125 -8.541,-11.133 -8.452,-11.142C-8.329,-11.153 -8.206,-11.165 -8.084,-11.177C-7.999,-11.185 -7.915,-11.193 -7.831,-11.202C-7.705,-11.214 -7.579,-11.227 -7.454,-11.239C-7.378,-11.247 -7.303,-11.255 -7.227,-11.263C-7.098,-11.276 -6.97,-11.29 -6.843,-11.303C-6.769,-11.311 -6.695,-11.319 -6.622,-11.327C-6.494,-11.341 -6.365,-11.355 -6.239,-11.369C-6.173,-11.377 -6.108,-11.384 -6.043,-11.392C-5.912,-11.407 -5.78,-11.422 -5.651,-11.438C-5.592,-11.444 -5.534,-11.452 -5.475,-11.459C-5.341,-11.475 -5.207,-11.491 -5.076,-11.508C-5.027,-11.514 -4.98,-11.52 -4.933,-11.526C-4.793,-11.544 -4.653,-11.562 -4.518,-11.58C-4.482,-11.585 -4.449,-11.589 -4.415,-11.594C-3.557,-11.71 -2.756,-11.833 -2.028,-11.965C-2.015,-11.967 -2,-11.97 -1.985,-11.973C-1.871,-11.994 -1.759,-12.015 -1.647,-12.037C-1.609,-12.044 -1.57,-12.051 -1.532,-12.058C-1.435,-12.078 -1.34,-12.097 -1.245,-12.117C-1.197,-12.127 -1.147,-12.137 -1.101,-12.147C-1.013,-12.165 -0.929,-12.184 -0.844,-12.203C-0.797,-12.214 -0.748,-12.224 -0.702,-12.235C-0.754,-8.576 -1.158,-2.024 -3.09,4.815C-6.897,18.291 -14.564,26.35 -25.879,28.767L-26.069,28.817C-26.463,28.941 -29.963,30.073 -31.877,31.684C-32.443,32.161 -32.789,32.254 -32.881,32.271L-33.121,32.234L-33.362,32.271C-33.454,32.254 -33.8,32.161 -34.366,31.684C-35.384,30.827 -36.953,29.998 -39.029,29.222L-39.23,29.147L-39.443,29.115C-51.597,27.251 -59.956,19.334 -64.289,5.581C-66.521,-1.502 -67.071,-8.415 -67.19,-12.229C-67.134,-12.216 -67.072,-12.203 -67.014,-12.19C-66.945,-12.175 -66.879,-12.16 -66.809,-12.145C-66.737,-12.13 -66.662,-12.115 -66.589,-12.1C-66.519,-12.086 -66.449,-12.071 -66.377,-12.057C-66.3,-12.042 -66.219,-12.027 -66.14,-12.012C-66.068,-11.998 -65.998,-11.985 -65.925,-11.971C-65.839,-11.956 -65.749,-11.94 -65.661,-11.925C-65.592,-11.913 -65.524,-11.9 -65.453,-11.888C-65.354,-11.871 -65.253,-11.855 -65.151,-11.839C-65.088,-11.828 -65.026,-11.818 -64.963,-11.807C-64.845,-11.789 -64.724,-11.77 -64.602,-11.752C-64.552,-11.744 -64.504,-11.736 -64.453,-11.729C-64.305,-11.706 -64.153,-11.685 -64.001,-11.663C-63.976,-11.659 -63.951,-11.655 -63.926,-11.652C-63.206,-11.55 -62.441,-11.455 -61.642,-11.365C-61.619,-11.362 -61.596,-11.36 -61.573,-11.358C-61.396,-11.338 -61.217,-11.318 -61.036,-11.299C-61.01,-11.296 -60.982,-11.293 -60.956,-11.291C-60.779,-11.272 -60.602,-11.253 -60.422,-11.235C-60.38,-11.231 -60.337,-11.227 -60.295,-11.222C-60.128,-11.206 -59.96,-11.189 -59.791,-11.172C-59.751,-11.169 -59.711,-11.165 -59.672,-11.161C-59.5,-11.145 -59.328,-11.129 -59.155,-11.112C-59.105,-11.108 -59.056,-11.104 -59.007,-11.099C-58.912,-11.09 -58.816,-11.082 -58.721,-11.073L-58.721,-11.082C-58.615,-11.065 -58.508,-11.054 -58.398,-11.054C-57.247,-11.054 -56.313,-11.987 -56.313,-13.138C-56.313,-14.177 -57.074,-15.035 -58.067,-15.194L-58.067,-15.195C-58.072,-15.195 -58.076,-15.195 -58.08,-15.196C-58.159,-15.208 -58.24,-15.216 -58.321,-15.219C-60.942,-15.467 -64.095,-15.839 -65.778,-16.187C-66.077,-16.249 -66.359,-16.313 -66.62,-16.379C-66.713,-16.402 -66.807,-16.433 -66.898,-16.467C-66.92,-16.475 -66.941,-16.483 -66.962,-16.491C-67.047,-16.525 -67.131,-16.562 -67.215,-16.604C-67.222,-16.608 -67.229,-16.61 -67.235,-16.614C-67.434,-16.716 -67.63,-16.843 -67.822,-16.994L-67.917,-17.068C-69.647,-18.509 -70.837,-21.796 -70.781,-25.405C-70.693,-31.119 -67.528,-37.901 -58.906,-39.797C-44.863,-42.886 -36.894,-46.969 -34.076,-48.609C-31.217,-46.984 -23.087,-42.894 -9.011,-39.797C-0.39,-37.901 2.776,-31.119 2.864,-25.405C2.92,-21.796 1.73,-18.509 0,-17.068M7.032,-25.469C6.971,-29.514 5.701,-33.455 3.46,-36.566C0.796,-40.263 -3.206,-42.789 -8.115,-43.868C-21.504,-46.814 -30.209,-50.991 -32.942,-52.788L-34.108,-53.556L-35.266,-52.771C-37.906,-50.978 -46.434,-46.809 -59.802,-43.868C-64.711,-42.789 -68.714,-40.263 -71.377,-36.566C-73.619,-33.455 -74.888,-29.514 -74.949,-25.469C-75.019,-20.971 -73.652,-17.038 -71.389,-14.629C-71.429,-11.905 -71.303,-2.872 -68.3,6.725C-63.555,21.887 -53.873,31.037 -40.295,33.201C-38.825,33.763 -37.65,34.369 -37.051,34.873C-35.377,36.283 -33.962,36.488 -33.121,36.437C-33.05,36.441 -32.974,36.444 -32.894,36.444C-32.037,36.444 -30.723,36.162 -29.191,34.873C-28.252,34.081 -26.104,33.21 -24.905,32.821C-12.197,30.067 -3.268,20.777 0.921,5.949C3.536,-3.307 3.535,-11.896 3.455,-14.611C5.729,-17.02 7.102,-20.961 7.032,-25.469" style="fill:white;fill-rule:nonzero;"/>
                        </g>
                    </g>
                </g>
            </g>
        </g>
    </g>
</svg>
